<svg width="323.000000" height="159.000000" viewBox="0 0 323 159" fill="none" xmlns="http://www.w3.org/2000/svg" xmlns:xlink="http://www.w3.org/1999/xlink">
	<desc>
			Created with Pixso.
	</desc>
	<defs/>
	<path d="M157.92 67.26C158.62 67.88 160.15 67.72 160.77 66.97C159.32 67.14 159.12 67.1 158.16 66.77C158.04 66.72 157.83 66.52 157.71 66.72C157.58 66.93 157.75 67.1 157.92 67.26ZM158.83 57.46C159.08 57.55 159.28 57.38 159.37 57.17C159.61 56.51 160.11 56.14 160.82 56.02C161.06 55.98 161.27 55.77 161.23 55.48C161.19 55.15 160.94 55.07 160.65 55.02C159.7 54.9 158.54 55.93 158.5 56.88C158.5 57.13 158.58 57.38 158.83 57.46ZM114.01 36.58C115.79 36.05 117.82 36.46 119.27 37.66C119.73 38.03 120.26 37.37 119.85 37C118.15 35.59 115.83 35.14 113.72 35.76C113.18 35.92 113.47 36.75 114.01 36.58ZM143.09 64.16C143.67 65.73 144.45 67.26 144.74 68.92C144.91 69.87 145.28 70.82 145.7 71.64C145.99 72.18 146.15 72.68 146.19 73.3C146.23 74.17 146.65 74.5 147.52 74.5C148.39 74.5 149.26 74.41 150.05 74.17C151.74 73.59 153.4 72.93 155.18 72.51C155.68 72.39 156.05 72.35 156.51 72.55C159.66 73.88 162.8 73.09 164.87 70.4C165 70.24 165.12 70.11 165.29 70.03C166.28 69.58 167.28 69.12 168.23 68.59C169.02 68.13 169.1 67.47 168.44 66.89C167.77 66.31 167.4 65.57 167.11 64.74C166.66 63.29 166.57 61.76 166.32 60.28C165.62 55.93 164.96 51.55 162.55 47.71C161.73 46.38 160.94 45.06 159.49 44.36C156.3 42.83 150.83 43.41 148.26 46.88C148.1 47.09 147.97 47.21 147.64 47.17C146.4 47 145.37 47.46 144.45 48.33C142.22 50.44 141.35 53.08 141.14 55.98C141.18 56.47 141.18 56.88 141.26 57.3C141.64 59.65 142.3 61.93 143.09 64.16ZM148.68 63.62C149.26 63.21 149.47 62.63 149.59 61.97C149.88 60.4 150.38 58.91 150.58 57.34C150.83 55.44 151.21 53.54 151.12 51.59C151.08 51.18 151.25 50.97 151.62 50.97C153.53 50.93 155.39 50.52 157.29 50.48C157.79 50.52 158.33 50.52 158.83 50.56C160.73 50.72 161.69 52.01 162.47 53.58C163.88 56.51 164.87 59.57 165.33 62.8C165.7 65.32 165.66 67.76 164.09 69.95C162.84 71.73 161.02 72.22 159.08 71.98C155.68 71.56 153.36 69.49 151.66 66.6C151.62 66.52 151.54 66.39 151.54 66.27C151.5 65.61 151.08 65.61 150.63 65.77C150.25 65.9 149.92 66.06 149.51 66.02C148.89 65.98 148.39 65.73 148.14 65.11C147.93 64.45 148.18 64 148.68 63.62ZM152.24 58.95C152.53 59.16 152.78 58.99 152.95 58.79C153.44 58.25 154.02 57.92 154.81 58.17C155.06 58.25 155.31 58.13 155.39 57.88C155.47 57.59 155.35 57.42 155.18 57.26C154.85 56.97 154.48 56.97 154.1 56.93C153.36 56.93 152.41 57.55 152.12 58.21C151.99 58.46 151.95 58.75 152.24 58.95ZM182.44 37.78C183.02 37.54 183.68 37.25 184.34 37.2C184.84 37.2 185.42 37.37 185.75 37.78C185.83 37.91 186 37.99 186.16 37.91C186.29 37.83 186.37 37.62 186.29 37.49C185.87 36.92 185.21 36.63 184.51 36.63C183.68 36.63 182.93 36.96 182.19 37.29C182.06 37.37 182.02 37.58 182.06 37.7C182.15 37.83 182.31 37.83 182.44 37.78ZM113.47 38.98C115.17 38.2 117.36 38.65 118.57 40.14C118.73 40.35 118.98 40.39 119.19 40.26C119.35 40.14 119.44 39.85 119.31 39.64C117.9 37.87 115.29 37.16 113.22 38.16C113.02 38.24 112.85 38.49 112.93 38.73C112.97 38.94 113.22 39.11 113.47 38.98ZM154.85 60.61C154.89 61.02 155.06 61.43 155.55 61.47C155.97 61.52 156.05 61.18 156.05 60.81C155.97 60.44 155.93 59.94 155.39 59.94C154.97 59.99 154.81 60.28 154.85 60.61ZM275.01 9.13C275.68 9.5 275.92 10.17 276.21 10.83C276.3 11.03 276.38 11.36 276.67 11.28C276.92 11.2 276.92 10.87 276.92 10.62C276.92 9.75 276.26 8.68 275.55 8.43C275.3 8.35 275.05 8.31 274.89 8.55C274.72 8.76 274.81 9.01 275.01 9.13ZM273.4 9.46C274.27 10.17 274.76 11.08 275.1 12.11C275.18 12.44 275.3 12.73 275.43 13.02C275.47 13.14 275.59 13.27 275.72 13.23C275.88 13.18 275.92 13.06 275.92 12.89C275.92 12.73 275.92 12.56 275.92 12.4C275.92 10.99 275.01 9.34 273.98 8.72C273.73 8.55 273.44 8.35 273.15 8.68C272.9 9.05 273.19 9.3 273.4 9.46ZM182.69 39.44C182.35 39.64 182.64 40.14 182.98 39.93C184.18 39.19 185.71 39.15 186.95 39.81C187.28 39.97 187.57 39.48 187.24 39.31C185.87 38.57 184.09 38.61 182.69 39.44ZM275.1 46.92C274.89 47.09 274.72 47.29 274.89 47.54C275.1 47.83 275.39 47.71 275.63 47.58C277.42 46.47 278.08 44.65 278.74 42.99C278.74 42.62 278.74 42.37 278.49 42.29C278.2 42.17 278.04 42.33 277.87 42.58C277.75 42.79 277.62 42.99 277.54 43.24C276.96 44.56 276.3 45.89 275.1 46.92ZM224.52 2.81C224.81 3.01 224.93 2.72 225.1 2.52C225.68 1.69 226.38 1.03 227.46 0.9C227.75 0.86 228.04 0.78 228 0.41C227.96 0.04 227.63 0 227.3 0C226.22 0.04 224.77 1.15 224.44 2.19C224.4 2.43 224.27 2.68 224.52 2.81ZM274.02 44.94C273.85 45.1 273.73 45.31 273.56 45.52C273.44 45.68 273.44 45.89 273.6 46.05C273.77 46.22 273.94 46.26 274.1 46.18C274.27 46.09 274.43 46.01 274.6 45.89C276.01 44.69 277 43.24 277.62 41.5C277.71 41.34 277.71 41.13 277.75 41.05C277.75 40.72 277.71 40.51 277.5 40.39C277.29 40.31 277.13 40.43 277 40.6C276.79 40.88 276.54 41.22 276.38 41.55C275.76 42.75 275.01 43.9 274.02 44.94ZM207.17 86.78C206.83 88.64 205.22 90.17 203.31 90.29C203.06 90.29 202.86 90.5 202.86 90.75C202.86 90.95 203.06 91.2 203.31 91.2C205.59 91.04 207.62 89.26 207.99 87.02C208.04 86.78 207.95 86.57 207.7 86.49C207.5 86.4 207.21 86.53 207.17 86.78ZM204.97 92.32C204.43 92.48 204.64 93.31 205.22 93.14C207.33 92.56 209.03 90.87 209.69 88.8C209.86 88.27 209.03 88.02 208.86 88.55C208.24 90.37 206.75 91.82 204.97 92.32ZM220.01 49.94C220.17 50.06 220.42 50.1 220.63 50.15C220.88 50.19 221.04 50.06 221.04 49.73C220.96 49.36 220.67 49.11 220.38 48.82C219.47 47.95 218.64 47.04 217.98 45.97C217.85 45.72 217.73 45.31 217.35 45.47C216.94 45.64 217.06 46.01 217.19 46.34C217.73 47.83 218.76 48.99 220.01 49.94ZM221.54 48.49C221.87 48.57 222.16 48.53 222.2 48.12C222.12 47.79 221.91 47.54 221.62 47.33C220.38 46.3 219.09 45.27 218.22 43.86C218.1 43.65 217.89 43.45 217.6 43.61C217.4 43.74 217.4 43.99 217.44 44.19C217.69 45.23 220.5 48.24 221.54 48.49ZM160.65 58.37C160.24 58.29 160.11 58.66 160.11 58.99C160.11 59.57 160.53 60.28 160.9 60.23C161.27 60.19 161.35 59.94 161.39 59.57C161.27 59.16 161.39 58.5 160.65 58.37ZM71.8 66.64C72.38 67.1 73.04 67.39 73.87 67.43C74.04 67.43 74.29 67.39 74.49 67.34C74.74 67.26 75.03 67.18 74.95 66.81C74.87 66.52 74.58 66.52 74.33 66.56C73.5 66.77 72.79 66.48 72.13 66.06C71.93 65.94 71.72 65.69 71.51 65.98C71.35 66.27 71.55 66.48 71.8 66.64ZM43.3 78.22C44.59 78.59 45.87 79.05 47.11 79.62C47.36 79.75 47.69 79.71 47.82 79.42C47.94 79.21 47.9 78.84 47.61 78.71C46.29 78.14 44.92 77.64 43.55 77.23C42.93 77.02 42.64 78.01 43.3 78.22ZM39.7 81.73C41.69 82.19 43.72 82.44 45.75 82.52C46.41 82.56 46.41 81.48 45.75 81.48C43.8 81.4 41.89 81.15 39.99 80.74C39.33 80.58 39.04 81.57 39.7 81.73ZM71.84 56.64C71.76 56.31 71.55 56.14 71.22 55.98C70.31 55.52 68.82 55.89 68.11 56.76C67.95 56.97 67.74 57.26 67.91 57.46C68.16 57.75 68.36 57.38 68.57 57.26C69.44 56.72 70.31 56.18 71.39 56.88C71.59 57.05 71.76 56.93 71.84 56.64ZM76.69 58C76.32 57.96 76.27 58.29 76.32 58.58C76.32 58.87 76.32 59.28 76.73 59.32C77.1 59.32 77.02 58.95 77.06 58.75C77.06 58.41 77.1 58.04 76.69 58ZM70.56 59.32C70.52 59.61 70.48 60.07 70.85 60.03C71.43 60.03 71.22 59.41 71.35 59.12C71.35 58.83 71.47 58.41 71.1 58.41C70.56 58.46 70.6 58.95 70.56 59.32ZM113.14 59.94C114.18 59.45 115.25 58.91 116.29 58.33C116.62 58.17 117.24 57.92 117.07 57.55C116.87 57.13 116.29 57.46 115.91 57.59C115 57.88 114.13 58.37 113.18 58.83C113.14 58.17 113.1 57.63 113.06 57.09C113.02 56.8 112.89 56.55 112.56 56.6C112.27 56.6 112.19 56.88 112.19 57.13C112.19 57.88 112.15 58.58 112.15 59.32C112.1 59.94 112.56 60.23 113.14 59.94ZM254.14 80.12C253.81 80.2 253.6 80.37 253.6 80.7C253.6 81.03 253.81 81.2 254.14 81.2C254.47 81.2 254.68 80.95 254.68 80.62C254.68 80.33 254.47 80.16 254.14 80.12ZM321.78 86.78C320.66 85.08 318.92 84.01 316.89 84.05C316.31 84.05 316.31 84.96 316.89 84.92C320.45 84.79 322.23 88.43 322.07 91.53C321.9 94.47 320.58 97.36 319.33 99.97C317.14 104.51 314.24 108.73 310.8 112.45C303.8 120.06 294.81 125.76 285.16 129.44C281.52 130.81 277.83 131.92 274.06 132.79C273.07 128.49 271.87 124.19 271 119.85C269.71 113.49 268.3 107.16 266.94 100.83C266.81 100.34 266.77 99.97 267.47 100.01C267.93 100.05 268.05 99.76 268.05 99.39C268.01 99.06 267.97 98.73 267.89 98.44C267.31 96.29 266.73 94.18 266.19 92.03C265.11 87.81 264.66 83.43 263.54 79.21C263.42 78.71 263.75 78.76 264 78.63C266.11 77.47 268.39 76.52 269.84 74.41C271.2 72.47 271.24 72.47 269.59 70.78C269.26 70.45 269.17 70.24 269.5 69.87C270.71 68.5 271.41 66.85 271.99 65.11C273.15 61.6 273.44 58.04 273.27 54.36C273.27 54.03 273.11 53.62 273.48 53.41C274.35 52.87 274.97 52.05 275.76 51.43C277.87 49.65 279.03 47.29 279.94 44.81C279.98 44.65 280.03 44.48 280.03 44.32C280.03 44.07 280.03 43.78 279.78 43.7C279.49 43.61 279.4 43.9 279.28 44.11C278.74 45.1 278.2 46.09 277.66 47.04C276.46 49.11 274.76 50.72 272.94 52.21C272.49 52.59 272.24 52.83 272.24 53.41C272.28 55.93 272.2 58.5 271.78 60.98C271.33 63.87 270.54 66.68 268.76 69.12C268.47 69.54 268.26 69.66 267.89 69.25C267.76 69.12 267.6 69 267.47 68.87C266.27 67.76 266.31 67.76 267.14 66.39C268.63 63.91 269.21 61.14 269.75 58.33C270.33 55.31 269.79 52.25 269.67 49.24C269.63 47.71 269.96 46.38 270.75 44.94C270.91 45.43 270.75 45.72 270.75 46.05C270.75 46.47 270.75 46.84 271.2 47C271.62 47.13 271.91 46.88 272.03 46.55C272.73 44.94 274.1 43.82 275.26 42.58C275.63 42.17 276.01 41.75 276.34 41.01C274.06 41.55 273.27 43.49 271.87 44.69C271.66 44.23 271.78 43.53 271.16 43.45C270.54 43.37 270.71 43.03 270.79 42.7C271.37 40.1 272.03 37.49 272.44 34.85C273.02 31.21 273.44 27.49 273.94 23.85C274.31 21.16 274.39 18.48 274.52 15.79C274.56 15.29 274.52 14.75 273.94 14.55C273.4 14.34 273.27 14.92 272.94 15.21C272.24 13.76 272.16 12.32 272.32 10.83C272.49 9.5 272.2 9.13 270.87 9.26C269.67 9.38 268.51 9.63 267.31 9.67C264.66 9.79 262.09 9.3 259.48 9.13C256.33 8.93 253.14 8.43 250.12 9.75C250.04 9.79 249.91 9.79 249.83 9.75C247.88 9.26 246.02 8.68 244.2 7.85C241.79 6.78 239.39 5.58 236.74 5.16C234.09 4.71 231.56 3.84 228.99 3.18C227.96 2.93 227.59 3.1 227.42 4.17C227.13 5.99 226.88 7.77 226.59 9.59C225.72 14.88 224.89 20.17 223.98 25.46C223.28 29.39 222.49 33.28 221.75 37.2C221.5 38.57 221.7 38.94 223.07 39.27C225.89 39.93 228.75 40.43 231.6 40.97C233.34 41.3 235.08 41.79 236.82 41.92C239.35 42.12 241.79 42.91 244.32 43.16C244.69 43.2 244.98 43.37 244.94 43.82C244.9 44.4 245.27 44.85 245.73 45.18C246.68 45.85 247.72 46.18 248.88 46.22C252.69 46.38 256.46 45.93 260.27 45.93C263.17 45.93 266.11 45.93 269.09 45.93C268.88 46.88 268.59 47.79 268.68 48.7C268.8 50.02 268.8 51.34 268.84 52.67C268.97 56.39 268.39 59.99 267.14 63.5C266.77 64.62 266.27 65.65 265.53 66.77C265.36 66.56 265.32 66.39 265.2 66.27C264.49 65.53 264.12 65.57 263.54 66.39C263.37 66.68 263.21 66.97 263 67.22C261.63 69.04 260.31 70.98 257.95 71.56C256.5 71.89 255.63 72.72 254.84 73.88C254.3 74.7 253.64 75.45 253.18 76.32C252.94 76.81 252.65 76.81 252.23 76.52C251.03 75.57 249.83 74.62 248.63 73.67C247.84 73.05 247.22 72.26 246.1 72.18C244.53 72.1 243.08 71.48 241.71 70.74C240.51 70.07 239.56 69.16 238.81 68.05C238.6 67.76 238.52 67.43 238.11 67.47C237.65 67.47 237.53 67.84 237.44 68.17C237.32 68.63 237.11 68.67 236.74 68.42C236.16 68.05 235.62 67.63 235.12 67.18C231.85 64.08 230.03 60.23 229.24 55.85C228.99 54.53 228.75 53.25 229.08 51.88C229.33 50.77 228.99 49.65 228.41 48.66C227.63 47.42 226.8 46.26 225.85 45.18C225.14 44.36 224.19 43.99 223.15 43.74C222.45 43.57 222.04 43.99 222.12 44.69C222.12 44.81 222.28 44.98 222.08 45.14C221.25 44.44 220.38 43.78 219.67 42.95C219.43 42.66 219.14 42.37 218.76 42.7C218.43 42.99 218.64 43.32 218.85 43.57C220.3 45.1 221.7 46.67 223.86 47.17C224.15 47.25 224.44 47.46 224.65 47.09C224.85 46.71 224.65 46.47 224.4 46.22C224.07 45.89 223.73 45.52 223.4 45.18C224.19 45.27 224.77 45.68 225.22 46.22C225.8 46.92 226.3 47.67 226.88 48.37C227.96 49.65 228.33 51.18 228.12 52.75C227.92 54.49 228.17 56.14 228.58 57.75C229.86 62.55 231.94 66.85 236.45 69.54C236.82 69.74 236.7 69.95 236.57 70.2C236.2 70.98 235.75 71.73 235.46 72.55C235.21 73.26 234.92 73.17 234.42 72.8C231.15 70.36 228.58 67.39 226.96 63.62C225.93 61.23 224.81 58.83 224.81 56.14C224.81 55.69 224.44 55.56 224.15 55.4C222.45 54.32 220.96 53.04 219.67 51.51C218.89 50.6 218.22 49.61 217.6 48.57C217.48 48.33 217.31 48.08 216.98 48.2C216.69 48.33 216.78 48.62 216.82 48.86C216.9 49.61 217.23 50.23 217.64 50.81C219.09 53.08 220.92 54.94 223.2 56.43C223.53 56.64 223.82 56.84 223.9 57.26C224.52 60.36 225.51 63.25 226.96 66.1C228.66 69.41 231.19 71.89 234.09 74.08C234.5 74.41 234.59 74.54 234.34 75.03C233.8 76.03 233.88 76.4 234.75 77.14C235.04 77.39 235.37 77.6 235.66 77.8C236.99 78.59 238.36 79.29 239.81 79.75C240.3 79.91 240.47 80.16 240.51 80.66C240.68 83.1 240.59 85.58 240.59 88.02C240.59 92.15 240.72 96.24 241.01 100.38C241.05 100.83 241.01 101.45 241.54 101.58C242.25 101.74 242.08 102.16 242 102.61C240.26 111.05 238.11 119.4 236.74 127.91C236.37 130.31 235.99 132.71 235.66 135.11C227.17 134.53 218.76 133.5 210.56 132.3C200.04 130.77 189.56 128.87 179.12 126.88C178.87 125.43 178.58 123.99 178.21 122.58C176.93 117.74 175.73 112.91 174.69 108.03C174.11 105.22 173.28 102.41 172.79 99.55C172.66 98.89 172.79 98.35 173.45 98.11C174.36 97.73 175.27 97.32 176.27 97.11C178.46 96.62 180.61 96.12 182.73 95.42C183.02 95.29 183.35 95.21 183.31 94.88C183.27 94.43 183.51 94.38 183.85 94.3C186.95 93.64 189.98 92.65 192.96 91.7C193.91 91.41 194.82 90.95 195.73 90.58C196.23 90.37 196.64 89.96 196.48 89.46C196.23 88.84 196.52 88.64 196.98 88.35C197.06 88.31 197.18 88.18 197.22 88.1C197.51 87.19 198.34 87.11 199.05 86.78C200.29 86.24 201.49 85.54 202.69 84.92C203.56 84.46 204.43 84.01 205.47 83.8C206.83 83.55 207.46 82.77 207.5 81.36C207.54 80.82 207.62 80.33 207.83 79.79C208.16 78.96 208.04 78.3 207.37 77.8C206.88 77.43 206.79 77.06 206.83 76.52C206.92 75.37 206.63 74.33 205.59 73.67C205.34 73.51 205.09 73.42 204.85 73.67C204.6 73.92 204.72 74.17 204.93 74.37C205.63 75.03 205.76 75.9 205.63 76.81C205.55 77.52 205.76 78.09 206.38 78.51C206.63 78.67 206.88 78.92 206.75 79.21C206.42 79.95 206.42 80.78 206.3 81.57C206.17 82.35 205.55 82.68 204.8 82.52C204.51 82.44 204.18 82.44 203.85 82.39C203.56 82.35 203.19 82.52 203.02 82.23C202.86 81.94 203.15 81.65 203.31 81.36C203.35 81.28 203.4 81.24 203.44 81.2C204.1 80.16 203.85 79.67 202.65 79.62C202.57 79.62 202.44 79.62 202.44 79.46C202.86 79 203.52 78.76 203.93 78.22C204.43 77.52 204.27 77.02 203.4 76.85C203.06 76.81 202.69 76.85 202.32 76.65C202.9 76.23 203.44 75.86 203.93 75.49C204.14 75.32 204.39 75.08 204.27 74.83C204.02 74.37 204.14 73.88 204.1 73.38C203.6 68.87 202.82 64.41 202.28 59.9C201.99 57.67 201.49 55.44 201.32 53.16C201.28 52.59 200.91 52.42 200.37 52.71C197.68 54.16 194.82 55.11 191.96 56.02C190.68 56.43 189.4 56.84 188.03 57.26C188.03 57.01 188.15 56.93 188.28 56.8C190.39 54.78 192.34 52.67 194.16 50.39C195.07 49.24 195.82 47.95 196.4 46.63C196.73 45.85 196.52 45.47 195.73 45.23C195.28 45.1 194.86 44.94 194.41 44.77C191.67 43.74 188.98 42.75 186.29 41.63C185.34 41.22 185.01 41.38 184.47 42.25C184.05 42.91 183.68 43.57 183.22 44.23C180.45 48.24 177.38 51.96 173.66 55.15C172.33 56.26 171.21 57.59 170.42 59.16C170.3 59.41 170.09 59.78 170.42 59.94C170.96 60.19 171.42 60.65 172.08 60.73C173.28 60.9 174.48 60.81 175.77 60.98C175.31 61.27 175.27 61.64 175.19 62.01C175.02 63.33 174.94 64.62 174.98 65.94C175.02 70.07 175.27 74.17 176.06 78.22C176.14 78.76 176.14 78.92 175.52 78.76C173.86 78.34 172.16 78.01 170.55 77.56C169.39 77.23 168.27 76.77 167.82 75.49C167.69 75.12 167.4 74.87 166.95 74.95C166.49 75.03 166.37 75.41 166.28 75.82C165.87 77.8 164.25 78.88 162.26 78.51C160.11 78.09 158.25 77.18 156.71 75.61C156.26 75.16 155.84 74.62 155.06 74.7C153.15 74.87 151.37 75.32 149.63 76.15C147.39 77.18 146.11 78.88 145.57 81.28C145.08 83.55 145.2 85.78 145.49 88.06C145.86 90.79 146.52 93.43 148.51 95.5C148.72 95.71 148.76 95.91 148.68 96.16C148.22 97.48 148.22 98.89 147.89 100.26C146.69 105.59 145.61 110.96 144.78 116.38C144.58 117.66 144.33 118.94 144.08 120.22C141.1 119.69 138.08 119.19 135.05 118.69C121.01 116.42 106.84 114.81 92.68 114.4C92.22 112.78 91.77 111.13 91.31 109.52C90.48 106.58 89.86 103.56 88.82 100.67C88.66 100.17 88.74 99.97 89.32 99.97C89.69 99.97 90.07 99.84 90.48 99.76C91.1 99.63 91.27 99.26 91.1 98.68C90.52 96.82 89.98 95 89.45 93.14C88.66 90.5 87.79 87.85 86.84 85.25C86.67 84.83 86.67 84.59 87.21 84.5C90.23 84.05 93.01 82.85 95.74 81.53C99.35 79.79 102.78 77.68 105.56 74.75C105.64 74.66 105.68 74.58 105.77 74.54C106.97 74.08 107.67 73.01 108.71 72.35C109.04 72.14 109.08 71.77 108.79 71.44C107.88 70.4 107.38 69.12 106.47 68.09C106.88 67.88 107.22 67.72 107.55 67.51C109.25 66.48 110.78 65.32 112.1 63.83C112.31 63.62 112.48 63.29 112.77 63.67C113.39 64.41 114.09 64.37 114.84 63.91C115.09 63.79 115.33 63.71 115.58 63.62C119.89 61.93 123.7 59.57 125.98 55.36C126.23 54.9 126.23 54.61 125.94 54.24C125.4 53.49 124.86 52.79 124.32 52.09C122.33 49.48 120.18 47.04 118.61 44.15C118.15 43.32 117.53 42.58 116.91 41.84C116.45 41.26 116.08 41.34 115.79 42C115.42 42.95 114.84 43.74 114.22 44.52C111.4 48.12 108.04 51.06 103.94 53.04C103.2 53.41 103.16 53.7 103.78 54.28C104.48 54.98 105.1 55.77 105.73 56.55C106.8 57.92 106.8 57.92 105.85 59.41C105.06 60.69 104.32 61.97 103.53 63.21C103.45 63.38 103.41 63.87 102.99 63.46C102.49 62.96 102.12 63.17 101.79 63.62C99.06 66.97 95.66 69.49 91.93 71.56C88.33 73.59 84.56 75.03 80.25 74.04C79.63 73.88 79.05 74.37 78.97 74.99C78.84 75.82 78.47 76.56 78.06 77.27C76.32 80.16 72.09 80.45 69.9 77.89C69.32 77.18 68.78 76.48 68.36 75.66C68.11 75.12 67.74 74.95 67.16 74.83C64.97 74.46 62.73 74.54 60.53 74.75C57.22 74.99 54.61 76.48 52.71 79.17C50.8 81.86 49.76 84.92 49.14 88.14C48.73 90.29 48.65 92.48 48.81 94.67C48.85 95.09 48.85 95.5 48.32 95.67C48.07 95.75 48.03 96.04 47.98 96.29C47.9 97.57 47.78 98.81 47.69 100.09C47.65 100.75 47.86 101.08 48.52 101C48.98 100.96 49.14 101.12 49.1 101.58C49.02 102.32 49.06 103.07 49.14 103.85C49.27 104.76 49.39 105.67 49.52 106.58C49.64 107.33 49.89 108.07 50.39 108.65C51.01 109.35 52 109.52 52.62 110.3C52.75 110.47 53.08 110.55 53.2 110.8C53.33 110.96 53.49 111 53.7 111C54.49 110.88 54.9 110.51 54.9 109.68C54.9 108.32 54.86 106.95 54.86 105.59C54.86 105.09 54.82 104.6 54.82 104.14C54.82 103.85 54.78 103.56 54.45 103.52C54.11 103.48 53.99 103.77 53.95 104.02C53.82 104.51 53.82 104.97 53.82 105.46C53.87 106.87 53.87 108.23 53.91 109.64C53.49 108.36 53.33 107.04 53.16 105.71C53.12 105.38 53.24 104.76 52.71 104.84C52.25 104.89 52.42 105.42 52.42 105.75C52.42 106.79 52.5 107.82 52.71 108.85C52.62 108.73 52.54 108.61 52.5 108.48C51.96 107.49 51.92 106.37 51.75 105.3C51.71 105.05 51.67 104.72 51.3 104.76C50.97 104.8 50.97 105.09 50.97 105.34C50.92 106.21 50.92 107.04 51.21 108.07C50.8 107.61 50.63 107.24 50.55 106.87C50.18 105.09 49.93 103.27 49.81 101.45C49.76 101.04 49.97 101.04 50.3 101.04C51.63 101.08 52.95 101.16 54.24 101.21C54.57 101.21 54.78 101.33 54.9 101.66C55.44 103.11 55.85 104.6 55.36 106.13C55.27 106.42 55.11 106.79 55.52 106.91C55.94 107.04 56.14 106.71 56.27 106.37C56.48 105.67 56.6 104.97 56.48 104.22C56.35 103.23 56.06 102.28 55.69 101.29C56.39 101.25 57.05 101.25 57.05 100.26C56.97 97.73 57.18 95.21 57.51 92.69C57.63 91.78 57.8 90.91 57.97 90.04C58.13 89.17 58.34 88.35 58.59 87.31C58.71 87.6 58.75 87.69 58.75 87.77C59.42 92.28 59.83 96.82 59.46 101.37C59.37 102.49 59.62 102.78 60.74 102.61C61.53 102.53 61.45 102.82 61.28 103.36C60.66 105.75 60 108.15 59.5 110.59C59.08 112.49 58.71 114.35 58.3 116.26C40.16 118.94 22.39 124.57 6.81 134.36C4.53 135.81 2.34 137.34 0.18 138.91C-0.27 139.24 0.18 140.03 0.64 139.66C17.5 127.21 37.55 120.22 58.13 117.12C57.84 118.36 57.59 119.6 57.3 120.84C56.64 123.9 55.9 126.96 55.32 130.06C54.65 133.41 53.95 136.76 53 140.03C52.66 141.23 52.37 142.47 52.04 143.71C51.96 144.04 51.88 144.53 52.33 144.53C53.04 144.49 53.58 144.91 54.24 144.99C54.9 145.07 54.82 145.32 54.57 145.78C53.91 147.02 53.2 148.26 52.62 149.54C51.75 151.44 52.08 153.3 53.58 154.62C56.14 156.9 59.08 158.47 62.52 158.96C63.31 159.09 63.97 158.84 64.47 158.26C65.63 156.94 65.5 155.53 64.14 154.38C63.02 153.42 61.78 152.76 60.49 152.1C60 151.85 59.62 151.48 59.62 150.86C59.62 149.66 59.83 148.55 60.49 147.51C60.66 147.26 60.82 146.97 60.53 146.73C60.2 146.48 59.95 146.73 59.75 146.97C59.29 147.55 59.13 148.3 58.92 149C58.26 151.07 58.79 152.27 60.74 153.26C61.82 153.8 62.85 154.38 63.72 155.24C64.22 155.74 64.55 156.28 64.18 157.02C63.77 157.85 63.27 158.05 62.4 157.89C59.58 157.31 57.05 156.03 54.82 154.25C53.2 152.97 52.95 151.6 53.87 149.7C54.49 148.42 55.15 147.14 55.77 145.82C55.94 145.49 56.14 145.44 56.48 145.49C57.92 145.69 59.29 146.06 60.66 146.44C61.98 146.81 63.31 147.14 64.51 147.8C65.42 148.3 65.67 148.26 66.21 147.35C66.95 145.98 67.7 144.62 68.49 143.25C68.9 142.51 68.86 142.34 68.03 141.97C66.75 141.43 65.5 140.9 64.22 140.32C64.01 140.24 63.6 140.15 63.77 139.82C63.89 139.49 64.22 139.62 64.47 139.7C65.38 139.99 66.29 140.24 67.12 140.69C68.03 141.19 68.16 141.19 68.49 140.24C69.65 137.09 70.77 133.95 71.97 130.85C73.13 127.79 74.24 124.73 75.07 121.59C75.61 119.44 76.32 117.37 77.1 115.3C77.27 115.3 77.43 115.3 77.6 115.26C77.31 116.3 77.06 117.41 76.61 118.36C75.74 120.14 76.15 121.63 77.1 123.2C78.76 125.97 80.37 128.74 81.78 131.64C83.77 135.81 86.34 139.66 88.24 143.83C88.49 144.33 88.82 144.49 89.36 144.29C89.57 144.2 89.78 144.12 89.98 144.04C90.48 143.79 90.77 143.87 90.9 144.49C91.23 145.9 91.64 147.26 92.06 148.67C92.3 149.58 92.93 150.16 93.8 150.49C94.5 150.74 95.2 150.98 95.91 151.03C99.68 151.19 103.03 150.12 105.97 147.76C106.76 147.14 107.46 146.35 107.09 145.28C106.72 144.16 105.68 144.08 104.65 144.08C102.91 144.08 101.13 144.12 99.39 144.49C98.43 144.7 97.52 144.7 97.07 143.58C96.98 143.42 96.82 143.25 96.61 143.34C96.4 143.42 96.36 143.63 96.32 143.83C96.2 144.66 97.03 145.57 98.02 145.69C98.72 145.78 99.39 145.65 100.05 145.53C101.75 145.2 103.45 145.16 105.15 145.24C105.48 145.24 105.85 145.32 106.02 145.69C106.14 146.02 105.89 146.31 105.68 146.52C105.52 146.73 105.31 146.89 105.1 147.1C104.4 147.72 103.57 148.17 102.74 148.55C100.13 149.78 97.44 150.41 94.58 149.83C93.71 149.66 93.09 149.21 92.84 148.26C92.51 146.97 92.18 145.69 91.77 144.45C91.56 143.79 91.64 143.58 92.35 143.38C95.12 142.67 97.94 142.01 100.67 141.06C101.29 140.86 101.54 140.52 101.33 139.86C101.04 138.95 100.8 138 100.51 137.05C100.17 135.98 100.13 135.98 99.01 136.35C97.85 136.76 96.65 137.13 95.62 137.84C95.41 137.96 95.08 138.17 94.91 137.84C94.75 137.51 95.08 137.38 95.33 137.26C96.2 136.76 97.07 136.22 98.02 135.94C98.48 135.81 98.64 135.56 98.43 135.07C98.14 134.2 98.06 133.33 97.81 132.46C96.11 126.72 94.46 120.97 92.84 115.22C106.55 115.59 120.26 117.17 133.85 119.32C137.16 119.85 140.52 120.43 143.83 121.01C143.17 124.15 142.42 127.29 141.93 130.48C141.31 134.32 140.35 138.17 139.65 142.01C139.44 143.17 139.77 143.5 140.97 143.5C141.97 143.5 142.96 143.54 143.96 143.54C144.41 143.54 144.54 143.71 144.5 144.2C144.29 145.78 144.04 147.35 144.08 148.92C144.12 151.36 145.16 152.85 147.48 153.63C149.67 154.38 151.91 154.79 154.19 154.95C155.89 155.08 157.5 154.75 158.95 153.8C160.19 152.97 160.61 151.44 159.86 150.24C159.28 149.29 158.33 148.92 157.29 148.71C155.8 148.42 154.31 148.17 152.86 147.8C152.16 147.64 151.5 147.31 151.62 146.39C151.66 146.06 151.45 145.82 151.12 145.78C150.79 145.73 150.58 145.9 150.42 146.19C150.21 146.69 150.29 147.18 150.54 147.68C151.04 148.67 151.95 149.04 152.95 149.29C154.27 149.58 155.6 149.78 156.92 150.03C157.42 150.12 157.92 150.24 158.33 150.57C159.16 151.15 159.12 152.14 158.29 152.68C157.25 153.3 156.18 153.67 154.97 153.63C152.7 153.55 150.46 153.13 148.31 152.43C146.23 151.77 145.53 150.7 145.66 148.59C145.74 147.18 145.9 145.82 145.99 144.45C146.03 143.87 146.19 143.75 146.73 143.79C148.35 143.96 149.92 144.08 151.54 144.25C151.95 144.29 152.08 144.16 152.12 143.75C152.24 141.48 152.28 139.2 152.16 136.97C152.03 134.28 151.91 131.55 151.95 128.87C151.95 128.29 151.95 127.71 152.2 127.09C152.49 127.42 152.45 127.71 152.45 128.04C152.57 130.19 152.7 132.38 152.82 134.53C152.99 137.59 153.19 140.65 152.9 143.75C152.86 144.25 153.03 144.33 153.44 144.33C155.14 144.33 156.8 144.29 158.5 144.33C159.2 144.37 159.28 144.12 159.24 143.5C158.74 139.2 158.29 134.94 157.87 130.64C157.46 126.34 157.13 122 157.13 117.66C157.13 117.33 157.09 117 157.29 116.67C157.5 117 157.5 117.33 157.54 117.62C158.12 121.47 158.29 125.39 158.7 129.24C159.2 134.08 159.74 138.87 160.19 143.71C160.24 144.16 160.4 144.33 160.9 144.33C162.43 144.33 163.92 144.25 165.41 144.12C166.03 144.08 166.24 144.25 166.28 144.82C166.41 145.86 166.57 146.85 166.86 147.84C167.36 149.66 168.56 150.86 170.34 151.48C173.49 152.6 176.64 152.43 179.79 151.69C180.49 151.52 181.24 151.36 181.86 150.94C182.69 150.41 182.98 149.62 182.89 148.67C182.85 147.8 182.23 147.39 181.48 147.06C180.95 146.85 180.41 146.77 179.83 146.73C178.34 146.6 176.85 146.73 175.4 146.19C174.65 145.9 174.07 145.44 174.11 144.53C174.11 144.08 173.9 143.75 173.45 143.75C172.99 143.79 172.79 144.16 172.79 144.58C172.74 145.36 172.95 146.06 173.53 146.64C174.4 147.51 175.48 147.84 176.64 147.97C177.96 148.09 179.33 148.13 180.66 148.26C181.03 148.3 181.53 148.38 181.53 148.96C181.53 149.5 181.19 149.83 180.7 149.95C177.43 150.9 174.11 151.32 170.8 150.12C169.64 149.7 168.77 148.96 168.4 147.76C168.15 146.97 167.98 146.23 167.82 145.4C167.53 143.96 167.53 143.91 169.06 143.87C169.6 143.87 169.72 143.67 169.64 143.17C169.43 142.05 169.27 140.98 169.02 139.86C167.82 134.53 166.86 129.16 166.78 123.66C166.78 123.2 166.78 122.75 166.78 122.29C166.86 122.29 166.9 122.29 166.99 122.29C167.07 122.75 167.15 123.2 167.24 123.66C167.73 126.92 168.11 130.19 168.69 133.41C169.27 136.76 170.22 140.03 170.63 143.38C170.67 143.79 170.92 143.75 171.21 143.71C173.32 143.58 175.4 143.42 177.47 143C179.16 142.67 179.12 142.67 178.71 141.06C176.64 133.33 174.48 125.6 173.16 117.66C172.95 116.3 172.66 114.97 172.74 113.57C172.87 114.06 173.03 114.52 173.16 115.02C174.11 119.03 175.02 123.08 176.06 127.09C177.3 132.01 178.63 136.89 179.91 141.77C179.99 142.01 179.99 142.39 180.45 142.26C181.28 142.1 182.06 141.97 182.89 141.77C183.51 141.6 183.68 141.14 183.39 140.57C181.82 137.51 180.95 134.2 180.08 130.93C179.79 129.86 179.58 128.78 179.37 127.67C190.31 129.73 201.24 131.72 212.26 133.25C219.88 134.32 227.75 135.27 235.62 135.81C235.37 137.75 235.08 139.74 234.83 141.68C234.75 142.39 235.08 142.76 235.7 142.92C235.95 143 236.24 143 236.53 143.05C236.91 143.05 236.95 143.25 236.95 143.58C236.78 145.07 236.66 146.56 236.53 148.05C236.45 149 236.66 149.83 237.2 150.61C238.4 152.23 239.6 153.88 241.05 155.28C241.67 155.9 242.33 156.48 243.12 156.9C244.73 157.81 246.52 157.52 247.84 156.19C248.79 155.24 248.92 153.05 248.17 151.65C247.55 150.49 246.6 149.62 245.69 148.71C244.73 147.76 244.15 146.77 244.2 145.4C244.2 144.87 244.2 144.33 244.2 143.71C244.94 144 245.56 144.37 246.31 144.41C246.72 144.41 246.93 144.33 247.05 143.91C247.34 142.92 247.72 141.97 248.13 141.02C248.34 140.52 248.21 140.32 247.72 140.24C246.43 140.03 245.15 139.86 243.82 139.66C243.45 139.62 243.12 139.57 242.75 139.41C242.99 139.08 243.28 139.16 243.57 139.16C244.65 139.24 245.69 139.28 246.76 139.45C247.39 139.53 247.68 139.41 247.84 138.75C248.05 137.92 248.26 137.13 248.46 136.31C252.81 136.31 257.12 136.1 261.43 135.69C262.05 137.55 262.63 139.45 263.17 141.35C263.62 143 263.79 143.09 265.44 142.59C266.07 142.43 266.19 142.59 266.27 143.13C266.44 144.41 266.6 145.69 266.85 146.93C267.23 148.83 268.26 149.74 270.17 150.08C271.82 150.32 273.48 150.32 275.14 150.49C277.46 150.7 279.57 150.16 281.64 149.21C282.76 148.71 283.09 147.72 282.51 146.64C281.85 145.4 280.81 144.62 279.4 144.33C278.33 144.12 277.25 143.91 276.17 143.83C274.27 143.67 273.27 142.55 272.61 140.94C272.4 140.4 272.4 140.15 273.07 139.95C274.23 139.62 275.39 139.37 276.46 138.83C276.79 138.66 277.08 138.5 277 138.04C276.84 137.22 276.67 136.39 276.54 135.56C276.46 134.94 276.21 134.94 275.72 135.15C274.35 135.77 272.98 136.43 271.53 136.76C271.12 136.89 270.54 137.26 270.33 136.64C270.17 136.06 270.87 136.02 271.24 135.77C271.33 135.73 271.45 135.69 271.57 135.69C272.53 135.44 273.44 135.07 274.31 134.65C274.72 134.45 274.76 134.24 274.68 133.83C274.68 133.74 274.64 133.66 274.6 133.54C278.78 132.59 282.88 131.35 286.86 129.73C296.22 126.01 304.96 120.39 311.79 112.99C315.15 109.31 318.05 105.22 320.24 100.75C321.86 96.82 324.59 91.08 321.78 86.78ZM244.9 38.4C244.78 39.19 244.69 40.02 244.65 40.84C244.61 41.5 244.15 42.17 243.53 42.04C237.73 41.09 231.98 39.81 226.22 38.78C225.31 38.61 224.4 38.45 223.49 38.32C222.99 38.24 222.45 37.37 222.53 36.92C223.32 32.66 224.23 28.52 224.93 24.22C225.8 18.72 226.67 13.06 227.54 7.56C227.67 6.69 227.92 5.74 228 4.87C228.04 4.42 228.79 3.8 229.2 3.96C233.55 5.54 238.19 5.74 242.41 7.81C244.28 8.72 246.97 10.12 249.08 10.5C249.7 10.58 248.71 11.45 248.75 11.78C248.54 14.34 248.09 16.86 247.76 19.39C247.34 22.69 247.01 26 246.47 29.27C245.85 32.33 245.4 35.34 244.9 38.4ZM245.73 41.92C245.65 41.88 245.56 41.84 245.56 41.71C245.56 41.63 245.56 41.5 245.56 41.42C245.56 41.38 245.56 41.38 245.56 41.34C245.6 40.02 245.77 38.73 245.98 37.41C246.23 36.01 246.47 34.64 246.81 33.24C247.1 32 247.39 30.76 247.51 29.51C247.63 28.23 247.76 26.91 247.88 25.63C248.09 23.02 248.5 20.46 248.83 17.9C248.92 17.28 249 16.66 249.04 16.08C248.96 15.46 249 14.84 249.12 14.22C249.17 14.05 249.17 13.93 249.21 13.76C249.21 13.6 249.25 13.47 249.25 13.31C249.29 12.89 249.37 12.23 249.62 11.74C249.62 11.7 249.62 11.65 249.66 11.61C249.91 11.2 250.16 10.83 250.49 10.54C251.2 9.92 252.11 10 253.02 10.04C254.51 10.08 255.96 10 257.45 10.04C260.35 10.12 263.21 10.58 266.11 10.54C266.81 10.54 267.51 10.5 268.22 10.41C268.76 10.37 269.3 10.25 269.84 10.21C270.17 10.17 270.58 10.21 270.79 10.5C271.08 10.87 271 11.45 270.91 11.9C270.83 12.52 270.66 13.14 270.5 13.76C270.33 14.42 270.29 15.09 270.25 15.79C270.17 17.24 270.08 18.68 269.96 20.13C269.75 23.02 269.54 25.96 269.05 28.81C268.55 31.66 267.85 34.48 267.6 37.37C267.51 38.11 267.47 38.86 267.39 39.6C267.35 40.1 267.31 40.64 267.06 41.13C266.69 41.84 265.9 41.84 265.24 41.92C263.83 42.08 262.46 42.29 261.05 42.41C259.69 42.54 258.28 42.62 256.91 42.58C255.46 42.54 254.05 42.41 252.6 42.37C251.24 42.33 249.87 42.41 248.46 42.41C247.72 42.41 246.93 42.54 246.18 42.29C245.98 42.17 245.85 42.04 245.73 41.92ZM267.76 44.44C266.07 44.77 264.37 44.56 262.67 44.48C261.1 44.4 259.48 44.36 257.91 44.32C256.33 44.23 254.8 44.11 253.23 44.23C251.86 44.32 250.53 44.48 249.21 44.52C248.21 44.56 247.01 44.48 246.31 43.7C246.14 43.53 246.31 43.2 246.56 43.28C246.68 43.32 246.85 43.24 246.97 43.24C247.05 43.24 247.1 43.24 247.14 43.28C249.75 43.28 252.31 43.24 254.88 43.37C257.33 43.49 259.81 43.61 262.21 43.2C263.5 42.99 264.82 43.16 266.02 42.58C266.36 42.41 266.81 42.7 267.35 42.95C266.48 43.28 265.69 43.03 264.99 43.53C265.9 43.61 266.77 43.7 267.68 43.78L267.68 43.94C267.72 43.94 267.76 43.94 267.81 43.99C268.01 44.03 268.05 44.4 267.76 44.44ZM268.59 44.07C268.43 44.07 268.26 43.86 268.39 43.7C268.39 43.65 268.43 43.65 268.43 43.61L268.39 43.61C268.47 42.58 269.17 41.71 268.97 40.51C268.43 41.26 268.39 42.08 267.93 42.95C269.3 33.44 271.37 24.26 271.37 14.84C271.53 14.84 271.66 14.84 271.82 14.84C271.87 15.91 271.95 16.95 271.99 18.02C272.03 17.81 272.03 17.57 272.11 17.36C272.16 17.11 272.24 16.82 272.4 16.57C272.4 16.49 272.44 16.45 272.49 16.41C272.65 16.2 272.86 16.04 273.15 16.04C273.27 16.04 273.36 16.12 273.4 16.2C273.69 17.03 273.65 17.98 273.56 18.85C273.48 19.8 273.31 20.75 273.15 21.7C272.98 22.65 272.9 23.64 272.73 24.64C272.53 25.75 272.32 26.87 272.16 28.03C271.74 30.3 271.37 32.62 270.95 34.89C270.75 36.05 270.54 37.16 270.37 38.32C270.21 39.31 270.04 40.35 269.92 41.38C269.75 42.12 269.79 44.19 268.59 44.07ZM104.52 54.11C104.28 53.87 104.48 53.74 104.65 53.66C105.31 53.33 105.93 52.96 106.55 52.63C110.53 50.35 113.51 47.09 116.04 43.37C116.29 42.95 116.37 43.03 116.62 43.37C117.7 44.69 118.32 46.26 119.31 47.62C120.89 49.9 122.71 52.05 124.36 54.24C125.07 55.15 125.07 55.23 124.36 56.1C122.91 57.96 121.26 59.57 119.23 60.81C117.57 61.85 115.75 62.55 113.97 63.33C113.6 63.5 113.43 63.25 113.22 63.09C112.27 62.34 111.57 61.35 110.53 60.73C110.24 60.56 109.95 60.36 109.66 60.19C109.41 60.07 109.2 59.99 109.33 59.74C109.66 58.66 109.66 57.67 109.58 56.68C109.54 56.43 109.49 56.14 109.41 55.89C109.33 55.64 109.16 55.4 108.87 55.36C108.54 55.31 108.38 55.52 108.21 55.73C107.92 56.18 107.59 56.6 107.3 57.05C107.13 57.3 107.01 57.3 106.84 57.05C106.14 56.02 105.39 54.98 104.52 54.11ZM103.74 64.24C105.31 61.8 106.8 59.28 108.62 56.76C108.79 57.92 108.71 58.87 108.33 59.78C108.13 60.32 108.17 60.61 108.83 60.77C109.74 61.02 110.36 61.72 111.03 62.3C111.36 62.59 111.36 62.88 111.03 63.21C109.62 64.7 108 65.9 106.26 66.97C105.89 67.18 105.68 67.14 105.35 66.81C104.77 66.15 104.4 65.32 103.74 64.74C103.61 64.62 103.61 64.45 103.74 64.24ZM67.91 76.98C68.86 79 70.39 80.37 72.75 80.66C75.78 81.07 78.47 79.33 79.51 76.23C79.59 76.03 79.63 75.82 79.71 75.61C79.8 75.32 79.8 74.99 80.29 75.16C80.75 75.28 80.87 75.45 80.79 75.9C80.5 77.72 79.67 79.38 78.43 80.62C76.65 82.31 74.37 82.93 71.93 82.19C69.69 81.53 67.91 80.24 66.87 78.05C66.5 77.31 65.96 76.65 65.75 75.78C66.71 75.74 67.41 75.94 67.91 76.98ZM69.27 103.94C69.19 104.14 69.07 104.43 68.94 104.72C67.49 107.28 65.55 109.27 62.85 110.51C62.52 110.63 62.07 110.96 61.86 110.63C61.65 110.26 62.19 110.05 62.48 109.89C65.26 108.48 67.29 106.37 68.78 103.69C68.86 103.56 68.94 103.31 69.11 103.36C69.36 103.44 69.32 103.69 69.27 103.94ZM77.27 114.6C77.35 114.48 77.43 114.4 77.56 114.31C77.6 114.4 77.6 114.52 77.6 114.6C77.52 114.6 77.39 114.6 77.27 114.6ZM82.98 99.43C78.55 99.92 74.12 100.5 69.65 100.79C66.83 101 64.06 101.33 61.28 101.58C60.62 101.62 60.49 101.45 60.53 100.83C60.82 95.91 60.37 91.04 59.17 86.28C59.08 85.95 59.08 85.7 59.29 85.45C59.83 84.67 60.41 83.92 61.36 83.55C61.57 83.47 61.82 83.39 61.78 83.1C61.74 82.81 61.45 82.77 61.2 82.77C60.7 82.81 60.33 83.06 59.95 83.3C58.42 84.46 57.76 86.12 57.34 87.89C56.76 90.25 56.31 92.65 56.27 95.09C56.23 96.58 56.27 98.02 56.23 99.51C56.19 100.17 55.98 100.34 55.36 100.34C53.2 100.26 51.05 100.21 48.89 100.17C48.52 100.17 48.44 100.01 48.48 99.68C48.52 98.64 48.56 97.57 48.61 96.62C50.22 96.53 51.71 96.66 53.2 96.74C53.49 96.74 53.78 96.74 53.78 96.33C53.78 95.83 53.45 95.96 53.2 95.91C52.13 95.83 51.05 95.71 50.01 95.62C49.76 95.58 49.64 95.54 49.6 95.25C49.47 92.98 49.39 90.75 49.89 88.51C50.55 85.37 51.5 82.39 53.37 79.75C55.03 77.43 57.3 76.07 60.16 75.82C61.53 75.7 62.94 75.61 64.3 75.61C64.8 75.61 65.01 75.78 65.17 76.23C66.21 78.76 67.53 81.03 70.14 82.31C73.17 83.8 76.07 83.51 78.59 81.53C80.21 80.29 81.12 78.38 81.49 76.32C81.62 75.61 81.78 75.41 82.57 75.45C84.81 75.53 87 74.91 89.03 74.08C93.96 72.06 98.19 69 101.79 65.07C102.16 64.66 102.33 64.57 102.74 65.07C103.86 66.48 104.9 67.97 105.89 69.45C106.39 70.16 107.01 70.69 107.55 71.36C107.8 71.69 107.8 71.89 107.42 72.1C107.22 72.22 107.01 72.39 106.8 72.51C105.81 73.22 105.81 73.22 104.98 72.26C104.19 71.36 103.45 70.4 102.74 69.45C102.54 69.16 102.29 68.79 101.87 69.08C101.5 69.37 101.75 69.7 101.91 69.99C102.58 71.11 103.36 72.14 104.28 73.05C104.69 73.51 104.77 73.84 104.28 74.25C103.61 74.79 103.03 75.45 102.37 75.94C97.65 79.62 92.35 82.15 86.55 83.55C86.22 83.63 86.05 83.55 85.97 83.22C85.88 82.97 85.8 82.77 85.72 82.56C85.59 82.27 85.51 81.86 85.1 81.98C84.68 82.1 84.85 82.48 84.93 82.81C86.05 86.65 87.13 90.46 88.41 94.26C88.82 95.54 89.16 96.82 89.57 98.11C89.74 98.64 89.57 98.73 89.11 98.77C87.04 99.06 85.01 99.22 82.98 99.43ZM193.79 86.86C193.91 87.36 194.37 87.36 194.78 87.36C195.15 87.36 195.48 87.36 195.9 87.52C195.57 87.69 195.24 87.85 194.95 88.06C194.53 88.35 194.16 88.72 194.49 89.22C194.78 89.63 194.57 89.71 194.24 89.84C190.68 91.16 187.03 92.28 183.35 93.14C182.85 93.27 182.69 93.14 182.64 92.69C182.44 91.2 182.19 89.71 181.77 88.27C181.73 88.1 181.65 87.89 181.9 87.69C182.93 86.98 183.93 86.24 184.88 85.5C186.08 84.59 187.41 83.88 188.9 83.22C188.69 84.63 188.94 84.92 190.31 84.79C192.01 84.63 193.7 84.59 195.4 84.79C195.57 84.83 195.73 84.75 195.9 84.96C195.48 85.45 194.95 85.7 194.41 85.99C194.08 86.12 193.66 86.32 193.79 86.86ZM187.95 58.75C191.26 57.75 194.57 56.76 197.76 55.36C198.38 55.07 198.96 54.73 199.59 54.45C199.83 54.32 200 54.28 200 54.65C200.17 56.88 200.7 59.08 200.95 61.31C200.99 61.76 200.87 62.01 200.5 62.26C199.79 62.71 199.13 63.21 198.47 63.67C198.22 63.83 197.97 64.04 197.8 64.49C199.09 64.33 200.08 63.75 201.16 63.13C201.41 64.7 201.66 66.19 201.9 67.68C201.9 67.72 201.9 67.76 201.9 67.84C202.24 69.78 202.24 69.78 200.5 70.61C197.43 72.02 194.28 73.17 191.05 74.13C190.76 74.21 190.51 74.33 190.06 74.46C190.72 74.7 191.22 74.58 191.72 74.5C195.24 73.88 198.63 72.76 201.78 71.02C202.32 70.74 202.44 70.78 202.53 71.4C202.65 72.43 202.82 73.46 203.15 74.46C203.27 74.83 203.15 74.91 202.86 75.08C202.36 75.37 201.82 75.61 201.32 75.94C200.95 76.19 200.62 76.52 200.75 77.02C200.87 77.52 201.28 77.68 201.7 77.85C201.86 77.93 202.07 77.93 202.36 78.01C202.03 78.3 201.74 78.51 201.49 78.76C201.08 79.17 200.66 79.58 200.87 80.2C201.04 80.82 201.61 80.74 202.11 80.86C201.86 81.53 201.45 82.15 201.7 82.89C201.82 83.22 202.11 83.43 202.57 83.59C201.74 84.05 201.04 84.38 200.33 84.79C199.38 85.37 198.3 85.7 197.47 86.53C197.18 86.82 196.85 86.32 196.44 86.4C196.73 86.03 196.98 85.74 197.18 85.41C197.68 84.54 197.39 83.92 196.4 83.8C194.57 83.59 192.71 83.35 190.85 83.68C190.31 83.76 190.14 83.72 190.1 83.14C190.06 82.35 189.31 81.98 188.44 82.31C187.32 82.72 186.25 83.3 185.3 84.01C184.14 84.83 182.93 85.66 181.9 86.65C181.77 86.78 181.61 87.02 181.44 86.65C181.24 86.16 180.78 86.16 180.32 86.24C179.74 86.32 179.04 86.61 178.63 86.4C178.17 86.2 178.34 85.37 178.21 84.83C177.43 81.73 176.97 78.55 176.47 75.37C176.43 74.99 176.56 74.83 176.89 74.75C177.26 74.62 177.67 74.46 177.84 74C177.59 73.84 177.3 73.75 177.05 73.84C176.35 74 176.31 73.63 176.27 73.05C176.1 70.94 175.98 68.83 175.93 66.68C175.93 66.19 176.02 65.86 176.56 65.69C176.8 65.61 177.22 65.48 177.14 65.15C177.05 64.82 176.64 64.86 176.39 64.91C176.02 64.95 175.98 64.78 176.02 64.49C176.02 64 176.06 63.5 176.06 63.05C176.06 61.93 176.06 61.93 177.14 61.72C177.38 61.68 177.63 61.64 177.84 61.64C179.04 61.52 179 61.52 179.08 62.76C179.5 69.29 179.79 75.86 181.57 82.23C181.77 82.97 182.02 83.68 182.31 84.38C182.44 84.71 182.56 85.25 183.06 85.04C183.56 84.87 183.31 84.42 183.22 84.09C182.44 81.28 181.77 78.43 181.36 75.53C181.24 74.62 181.15 73.71 181.03 72.76C180.95 72.26 181.07 72.06 181.65 72.02C183.72 71.85 185.79 71.64 187.74 70.86C188.24 70.65 188.73 70.45 189.15 69.95C188.69 69.83 188.32 69.99 187.99 70.07C185.96 70.57 183.89 70.9 181.77 71.11C181.15 71.19 180.86 71.07 180.82 70.32C180.74 68.87 180.57 67.47 180.45 66.02C180.41 65.57 180.57 65.48 180.99 65.44C182.81 65.24 184.51 64.66 186.21 63.75C185.67 63.5 185.25 63.67 184.84 63.71C183.51 63.95 182.19 64.2 180.9 64.49C180.49 64.57 180.32 64.49 180.32 64.04C180.32 63.38 179.99 62.55 180.28 62.14C180.61 61.64 181.48 62.22 182.11 62.14C182.23 62.14 182.35 62.14 182.48 62.18C183.93 62.67 184.92 62.05 185.58 60.81C185.96 59.61 186.83 59.08 187.95 58.75ZM175.56 60.61C175.02 60.52 174.48 60.48 174.11 60.03C173.95 59.78 173.66 59.86 173.45 59.86C172.66 59.82 171.92 59.74 171.09 59.53C172.08 58.04 173.2 56.76 174.48 55.64C178.67 52.13 182.02 47.91 184.92 43.28C185.25 42.75 185.5 42.66 186.08 42.91C188.77 44.15 191.59 45.14 194.37 46.22C194.82 46.38 194.86 46.55 194.66 47C193.62 49.03 192.17 50.72 190.68 52.42C189.56 53.66 188.86 55.19 187.74 56.43C186.41 57.88 185.17 59.41 183.97 60.98C183.8 61.18 183.6 61.27 183.31 61.23C180.74 60.81 178.13 61.02 175.56 60.61ZM175.64 80.2C175.93 80.24 176.06 80.33 176.14 80.62C176.47 82.27 176.85 83.92 177.22 85.62C177.38 86.45 177.05 86.9 176.14 86.9C175.6 86.94 175.06 86.9 174.53 87.02C174.4 87.07 174.24 87.02 174.19 87.11C173.41 87.93 172.41 87.52 171.5 87.6C171.09 87.64 170.92 87.44 170.88 87.07C170.51 85.16 169.93 83.35 169.64 81.44C169.47 80.49 169.6 79.46 168.85 78.47C171.25 79.25 173.41 79.83 175.64 80.2ZM163.63 97.9C160.82 98.19 157.96 98.15 155.18 97.61C150.21 96.62 147.6 93.93 146.77 88.72C146.48 87.02 146.28 85.33 146.28 83.63C146.32 80.58 147.6 78.18 150.63 77.06C151.66 76.69 152.7 76.4 153.77 76.19C154.77 75.99 155.64 76.28 156.47 76.77C157.21 77.18 157.96 77.68 158.66 78.18C160.36 79.33 162.22 79.62 164.13 78.88C165 78.55 165.66 77.97 166.08 77.14C166.2 76.9 166.32 76.69 166.66 76.69C166.99 76.69 167.07 76.98 167.15 77.23C167.48 78.26 167.86 79.29 168.15 80.37C168.69 82.56 169.18 84.75 169.68 86.9C169.8 87.4 169.72 87.6 169.14 87.56C166.2 87.44 163.3 87.23 160.57 85.99C157.87 84.79 156.05 82.89 156.09 79.67C155.64 79.75 155.55 80.04 155.51 80.37C155.26 82.56 157.21 85.74 159.08 86.49C161.69 87.52 164.46 87.89 167.19 88.14C171.38 88.55 175.56 88.27 179.74 87.56C180.16 87.48 180.32 87.52 180.45 88.02C180.86 89.92 181.15 91.86 181.53 93.76C181.61 94.18 181.53 94.34 181.11 94.47C175.44 96 169.6 97.32 163.63 97.9ZM254.22 76.48C254.84 75.66 255.42 74.83 256.04 74C256.13 73.88 256.21 73.55 256.42 73.71C256.7 73.92 256.99 74.25 257.16 74.54C257.28 74.75 256.95 74.79 256.79 74.87C256.5 74.99 256.17 75.12 255.92 75.28C255.5 75.53 255.26 75.9 255.55 76.36C255.79 76.81 255.59 77.06 255.21 77.27C254.68 77.56 254.18 77.93 253.47 78.05C253.6 77.43 253.89 76.94 254.22 76.48ZM246.76 74.7C247.05 74 247.34 74.08 247.84 74.58C248.83 75.49 249.91 76.28 251.03 77.18C250.82 77.31 250.7 77.39 250.57 77.43C249.46 77.93 249.46 77.93 249.04 76.81C248.63 75.7 248.63 75.7 247.39 75.78C247.05 75.82 246.56 75.94 246.39 75.66C246.23 75.32 246.64 74.99 246.76 74.7ZM242.46 144.25C242.12 146.19 242.37 148.05 243.86 149.54C244.53 150.2 245.15 150.86 245.77 151.56C246.47 152.31 246.89 153.13 246.81 154.21C246.72 155.57 245.4 156.48 244.11 156.03C243.33 155.74 242.7 155.2 242.12 154.66C240.59 153.3 239.39 151.65 238.15 150.03C237.78 149.54 237.61 148.96 237.69 148.34C237.9 146.97 237.86 145.61 237.82 144.25C237.78 143.5 238.02 143.25 238.73 143.42C238.94 143.46 239.14 143.42 239.35 143.42C240.26 143.5 241.13 143.58 242 143.67C242.33 143.67 242.54 143.71 242.46 144.25ZM243.86 108.98C243.7 109.14 243.41 109.23 243.2 108.98C243.04 108.73 243.12 108.52 243.28 108.32C244.44 107.12 245.4 105.75 245.94 104.14C245.98 103.98 246.1 103.81 246.27 103.89C246.56 104.02 246.39 104.31 246.47 104.64C246.1 106.33 245.15 107.78 243.86 108.98ZM248.3 135.56C249.17 132.17 250.12 128.74 251.15 125.39C252.31 121.71 253.52 118.03 254.22 114.19C254.43 113.11 254.68 112.04 255.09 111.05C255.34 110.47 255.63 109.93 256.17 109.56C256.17 110.55 255.88 111.38 255.67 112.25C255.09 114.4 254.76 116.42 255.38 118.74C256.91 124.24 258.94 129.53 260.72 134.94C256.62 135.36 252.48 135.56 248.3 135.56ZM266.02 98.77C259.77 99.84 253.43 100.13 247.14 100.46C245.56 100.54 244.03 100.26 242.46 100.46C241.92 100.54 241.92 100.13 241.88 99.8C241.75 97.53 241.59 95.29 241.54 93.02C241.46 89.63 241.42 86.24 241.34 82.89C241.34 82.39 241.3 81.9 241.21 81.4C241.17 80.91 240.96 80.41 241.79 80.24C242.25 80.16 242.25 79.67 241.83 79.38C241.59 79.21 241.3 79.13 241.01 79C239.14 78.38 237.36 77.6 235.62 76.61C234.96 76.23 234.79 75.9 235.21 75.12C236.16 73.42 236.95 71.64 237.73 69.91C237.94 69.41 238.11 69.25 238.52 69.74C240.34 71.81 242.75 72.89 245.44 73.26C246.18 73.38 246.1 73.59 245.77 74.08C244.53 76.11 244.78 76.61 247.18 76.61C247.63 76.61 247.88 76.77 248.01 77.18C248.09 77.43 248.21 77.68 248.3 77.93C248.5 78.47 248.92 78.63 249.5 78.51C250.2 78.34 250.86 78.18 251.53 77.89C251.9 77.72 252.15 77.72 252.15 78.3C252.23 79.38 252.15 80.41 252.19 81.48C252.23 81.77 252.23 82.06 252.31 82.39C252.36 82.64 252.44 82.93 252.73 82.93C252.98 82.93 252.98 82.6 253.02 82.39C253.14 81.57 253.14 80.7 253.06 79.87C253.02 79.42 253.1 79.17 253.6 79.05C254.47 78.84 255.17 78.3 255.96 77.89C256.5 77.6 256.66 77.1 256.5 76.56C256.37 76.11 256.58 75.99 256.91 75.86C258.78 74.99 258.82 74.91 257.41 73.34C257.37 73.3 257.33 73.22 257.2 73.01C260.23 72.39 262.01 70.32 263.62 68.01C264.08 67.34 264.29 67.43 264.7 67.97C265.86 69.45 267.43 70.57 268.72 71.93C269.13 72.39 269.13 72.64 268.84 73.17C267.64 75.28 265.49 76.23 263.54 77.39C262.17 78.22 262.09 78.18 262.34 79.75C263.21 85.12 263.87 90.54 265.44 95.79C265.69 96.58 265.9 97.36 266.23 98.11C266.52 98.52 266.56 98.68 266.02 98.77ZM270.17 140.94C270.5 140.81 270.66 140.86 270.75 141.23C270.79 141.48 270.91 141.72 271.04 141.97C271.95 144.25 273.65 145.36 276.05 145.53C276.96 145.61 277.87 145.73 278.82 145.9C279.57 146.02 280.15 146.35 280.6 146.93C280.98 147.43 281.02 147.76 280.31 148.01C278.49 148.67 276.67 149.21 274.89 148.96C273.19 148.96 271.66 148.83 270.17 148.67C268.84 148.5 268.34 148.09 268.05 146.77C267.72 145.28 267.64 143.75 267.18 142.3C267.06 141.93 267.35 141.89 267.56 141.81C268.43 141.52 269.3 141.23 270.17 140.94ZM259.6 80.91C258.69 80.99 257.78 81.07 256.87 81.2C256.58 81.24 256.42 81.36 256.33 81.61C255.92 82.81 256.46 83.55 257.7 83.55C257.78 83.55 257.86 83.55 258.11 83.55C258.61 83.63 259.27 83.43 259.98 83.39C260.39 83.35 260.6 83.1 260.6 82.68C260.6 82.39 260.56 82.1 260.6 81.77C260.6 81.07 260.23 80.82 259.6 80.91ZM259.31 82.52C258.86 82.56 258.4 82.64 257.95 82.68C257.62 82.6 257.16 82.89 257.16 82.27C257.16 81.73 257.57 81.9 257.86 81.86C258.32 81.77 258.78 81.77 259.23 81.73C259.48 81.69 259.73 81.73 259.73 82.1C259.73 82.39 259.65 82.52 259.31 82.52ZM246.56 57.46C246.23 57.5 246.06 57.67 246.06 57.92C246.14 58.46 246.43 58.83 246.97 58.91C247.22 58.95 247.39 58.75 247.34 58.5C247.3 58.04 247.05 57.63 246.56 57.46ZM251.94 56.31C251.9 55.93 251.82 55.56 251.36 55.52C250.99 55.48 250.82 55.73 250.82 56.06C250.82 56.43 251.03 56.76 251.44 56.8C251.78 56.88 251.9 56.6 251.94 56.31ZM77.48 49.03C77.23 49.11 77.1 48.86 76.98 48.7C76.77 48.41 76.65 48.12 76.44 47.83C76.07 47.25 75.61 47.21 75.11 47.67C74.95 47.83 74.82 48.04 74.7 48.24C74.37 48.82 74.33 49.44 74.29 50.06C74.29 50.48 74.24 50.97 73.75 51.01C73.25 51.06 73.25 50.52 73.13 50.19C73.04 49.98 72.96 49.73 72.88 49.48C72.67 48.91 72.22 48.66 71.64 48.66C71.06 48.66 70.68 48.91 70.39 49.4C70.02 50.06 70.02 50.81 69.9 51.51C69.85 51.76 69.85 52.09 69.52 52.13C69.19 52.17 68.98 51.96 68.86 51.68C68.65 51.3 68.49 50.89 68.24 50.52C67.95 50.02 67.49 49.69 66.91 49.77C66.33 49.86 65.96 50.23 65.71 50.77C65.5 51.22 65.38 51.76 65.38 52.25C65.42 52.83 65.42 53.33 65.05 53.83C65.46 54.03 65.79 53.83 66.17 53.74C68.45 53.08 70.64 52.21 72.96 51.68C74.66 51.3 76.44 51.14 78.1 50.56C78.64 50.35 78.68 50.15 78.51 49.69C78.3 49.07 77.81 48.66 77.72 48C77.72 48.16 77.64 48.33 77.68 48.49C77.68 48.7 77.72 48.95 77.48 49.03ZM67.53 51.96C67.33 52.09 67.08 52.17 66.87 52.25C66.75 52.3 66.58 52.3 66.46 52.21C66.37 52.13 66.33 52.05 66.37 51.96C66.58 51.59 65.84 50.97 66.71 50.81C66.83 50.77 66.91 50.72 67.04 50.68C67.29 50.64 67.53 50.48 67.7 50.77C67.82 51.01 67.45 51.1 67.37 51.34C67.53 51.47 67.87 51.3 67.91 51.63C67.95 51.76 67.7 51.88 67.53 51.96ZM71.1 51.18C70.39 51.18 70.77 50.56 70.77 50.39C70.72 49.81 71.3 49.86 71.68 49.73C71.88 49.77 72.13 49.69 72.09 50.02C72.05 50.68 71.64 51.18 71.1 51.18ZM74.95 49.19C74.87 48.82 75.36 48.82 75.65 48.7C75.82 48.62 76.11 48.57 76.19 48.78C76.32 49.11 75.9 49.11 75.78 49.32C75.49 49.24 75.03 49.65 74.95 49.19ZM75.9 50.06C75.65 50.15 75.28 50.35 75.11 50.06C74.91 49.57 75.53 49.61 75.74 49.36C76.03 49.4 76.48 49.03 76.61 49.44C76.77 49.9 76.23 49.94 75.9 50.06ZM251.65 65.69C251.69 65.86 251.82 65.98 251.98 66.02C252.6 66.15 253.1 65.94 253.56 65.53C253.97 65.11 254.26 64.66 253.93 63.91C253.31 64.57 252.73 65.15 251.9 65.36C251.69 65.4 251.61 65.53 251.65 65.69ZM255.75 53.95C254.8 51.43 253.35 49.15 250.91 48.04C247.1 46.3 243.08 46.42 239.18 47.87C237.07 48.66 235.79 50.31 235.46 52.54C235.37 53 235.29 53.33 234.88 53.62C233.43 54.65 232.76 56.06 232.8 57.84C232.89 60.19 233.84 62.14 235.41 63.83C237.11 65.69 239.39 66.68 241.5 67.88C241.79 68.05 242.21 68.13 242.54 68.13C243.04 68.09 243.33 68.3 243.66 68.63C245.52 70.78 247.97 71.69 250.78 71.77C251.32 71.77 251.86 71.77 252.4 71.64C254.92 70.98 257.24 68.3 257.41 65.4C257.57 62.76 256.95 60.15 255.96 57.67C255.79 57.3 255.59 56.88 255.79 56.51C256.25 55.6 256.08 54.78 255.75 53.95ZM256.29 63.54C256.25 65.57 255.75 67.51 254.18 69.08C253.1 70.16 251.82 70.61 250.24 70.49C246.64 70.16 244.15 68.34 242.58 65.15C242.12 64.24 242.12 64.24 241.25 64.86C241.05 64.99 240.88 65.11 240.67 65.03C240.43 64.91 240.39 64.66 240.39 64.41C240.43 63.62 240.63 62.92 241.05 62.26C242.33 60.15 242.25 57.92 241.46 55.64C241.34 55.23 240.63 54.98 240.96 54.49C241.17 54.16 241.71 54.03 242.08 53.87C244.78 52.71 247.55 51.84 250.57 52.59C251.4 52.79 252.02 53.25 252.52 53.87C254.84 56.55 256.25 59.74 256.29 63.54ZM59.91 55.11C60.04 55.52 60 55.89 59.83 56.31C59.54 57.09 59.46 57.92 59.58 58.75C59.66 59.16 59.62 59.49 59.46 59.86C59 60.98 59.25 62.09 60.12 62.51C60.91 62.84 60.99 63.29 60.78 63.95C60.74 64.12 60.74 64.29 60.74 64.45C60.7 66.35 62.56 68.46 64.35 68.38C64.76 68.38 64.92 68.5 65.13 68.79C67.53 72.26 70.97 73.42 75.03 72.97C77.35 72.68 78.97 71.44 79.84 69.25C80.33 68.05 80.54 66.77 80.66 65.48C80.91 62.84 80.37 60.23 79.84 57.67C79.75 57.26 79.63 56.84 80.13 56.55C80.42 56.39 80.46 56.02 80.5 55.69C80.66 54.32 80.25 53.08 79.55 51.92C78.8 50.72 78.8 50.72 77.48 51.26C77.1 51.43 77.02 51.55 77.23 51.92C77.72 52.83 78.06 53.78 78.3 54.78C78.72 56.76 79.13 58.79 79.51 60.81C79.88 62.8 79.88 64.78 79.55 66.77C78.97 70.49 77.23 72.1 73.46 72.1C70.93 72.1 68.69 71.4 66.87 69.45C64.88 67.3 64.01 64.74 63.68 61.93C63.64 61.68 63.72 61.39 63.48 61.27C63.23 61.18 63.1 61.47 62.98 61.6C62.32 62.22 61.57 62.26 60.78 61.97C60.04 61.72 59.79 61.06 60.08 60.15C60.29 59.49 60.62 59.32 61.45 59.53C61.9 59.65 62.19 59.57 62.48 59.16C63.27 58 63.72 56.72 64.01 55.4C64.14 54.94 64.01 54.69 63.48 54.86C62.73 55.07 62.03 55.23 61.28 55.4C60.95 55.48 60.45 55.81 60.33 55.31C60.24 54.94 60.82 54.94 61.11 54.86C62.27 54.53 63.48 54.24 64.68 53.91C64.26 53.33 63.97 52.79 63.72 52.21C63.48 51.68 63.1 51.22 62.48 51.22C61.82 51.22 61.49 51.76 61.24 52.3C60.99 52.87 60.91 53.45 60.91 54.07C60.91 54.28 60.99 54.65 60.7 54.69C60.37 54.69 60.37 54.32 60.37 54.07C60.33 53.25 60.41 52.46 60.82 51.76C61.69 50.19 63.31 50.19 64.26 51.68C64.35 51.8 64.39 52.01 64.63 52.09C64.72 50.93 64.97 49.86 66.13 49.32C67.45 48.7 68.28 49.53 69.07 50.44C69.4 49.4 69.61 48.41 70.72 48.04C71.8 47.67 72.71 48.08 73.46 48.91C73.66 48.45 73.79 48 74 47.62C74.82 46.22 76.27 46.22 77.14 47.54C77.27 47.75 77.35 47.91 77.6 47.95C77.27 47.71 77.14 47.29 77.06 46.96C76.69 45.47 75.69 44.85 74.24 44.52C71.84 43.94 69.56 43.03 67.08 42.83C66.66 42.79 66.33 42.87 66.04 43.16C64.1 45.23 62.11 47.21 60.29 49.36C60.12 49.57 60 49.73 59.75 50.1C60.29 49.9 60.66 49.73 60.99 49.61C64.55 48.29 68.16 47.17 71.8 46.14C72.92 45.8 74.08 45.6 75.2 45.31C75.45 45.27 75.74 45.18 75.82 45.52C75.86 45.85 75.53 45.85 75.32 45.93C75.24 45.97 75.2 45.97 75.11 45.97C72.5 46.59 69.94 47.29 67.37 48.12C64.8 48.95 62.23 49.81 59.66 50.72C59 50.97 58.96 51.22 59.08 51.76C59.42 52.87 59.66 53.99 59.91 55.11ZM61.82 52.59C61.9 52.09 62.36 52.13 62.69 52.01C62.9 52.01 63.14 52.05 63.06 52.21C62.94 52.63 62.48 52.67 62.15 52.79C61.98 52.87 61.78 52.75 61.82 52.59ZM61.65 53.49C61.9 52.96 62.4 52.87 62.9 52.79C63.1 52.83 63.39 52.83 63.27 53.04C62.98 53.49 62.44 53.62 61.98 53.74C61.78 53.78 61.61 53.66 61.65 53.49ZM68.69 45.56C68.24 45.6 67.78 45.6 67.33 45.68C66.91 45.72 66.5 45.76 66.42 46.3C66.33 46.63 66 46.76 65.67 46.76C65.42 46.76 65.26 46.63 65.13 46.42C64.97 46.09 65.09 45.8 65.34 45.56C65.75 45.06 66.29 44.81 66.91 44.73C67.49 44.69 68.07 44.69 68.74 44.65C69.11 44.77 69.9 44.61 69.9 45.14C69.85 45.76 69.11 45.52 68.69 45.56ZM77.64 56.47C77.81 56.14 77.48 55.93 77.23 55.81C77.02 55.69 76.77 55.64 76.65 55.6C75.98 55.6 75.53 55.81 75.16 56.18C74.99 56.35 74.82 56.51 74.99 56.76C75.16 57.01 75.4 56.88 75.57 56.72C75.98 56.39 76.4 56.26 76.94 56.47C77.19 56.64 77.48 56.84 77.64 56.47ZM244.73 55.6C244.03 55.81 243.49 56.64 243.53 57.63C243.66 57.92 243.49 58.54 244.07 58.58C244.73 58.62 244.49 58.04 244.57 57.67C244.65 57.22 244.69 56.72 245.19 56.51C245.52 56.39 245.69 56.14 245.52 55.81C245.36 55.52 245.02 55.52 244.73 55.6ZM251.03 53.41C251.03 52.96 250.66 52.75 250.24 52.71C249.5 52.63 248.63 53.25 248.42 53.95C248.38 54.2 248.3 54.45 248.59 54.61C248.83 54.73 249 54.53 249.12 54.36C249.41 53.99 249.7 53.74 250.12 53.78C250.62 53.91 250.99 53.95 251.03 53.41Z" fill="#2D2D2D" fill-opacity="1.000000" fill-rule="nonzero"/>
</svg>
