<svg width="408" height="387" viewBox="0 0 408 387" fill="none" xmlns="http://www.w3.org/2000/svg">
<path d="M368.451 29.5376L372.164 20.3251L370.321 10.568L379.533 14.2818L389.29 12.4381L385.577 21.6505L387.42 31.4077L378.208 27.6939L368.451 29.5376Z" fill="#FF5940"/>
<path d="M387.043 122.889L390.757 113.677L388.913 103.92L398.126 107.634L407.883 105.79L404.169 115.002L406.013 124.76L396.8 121.046L387.043 122.889Z" fill="white"/>
<path d="M77.2562 387L68.3872 382.528L58.5061 383.544L62.9782 374.676L61.9618 364.794L70.8306 369.266L80.7118 368.25L76.2398 377.119L77.2562 387Z" fill="#00BA6D"/>
<path d="M319.069 9.85475C321.79 9.85475 323.996 7.64869 323.996 4.92738C323.996 2.20606 321.79 0 319.069 0C316.348 0 314.142 2.20606 314.142 4.92738C314.142 7.64869 316.348 9.85475 319.069 9.85475Z" fill="white"/>
<path d="M128.932 385.754C131.653 385.754 133.859 383.548 133.859 380.827C133.859 378.105 131.653 375.899 128.932 375.899C126.211 375.899 124.005 378.105 124.005 380.827C124.005 383.548 126.211 385.754 128.932 385.754Z" fill="white"/>
<path d="M4.92738 314.203C7.64869 314.203 9.85475 311.997 9.85475 309.276C9.85475 306.555 7.64869 304.349 4.92738 304.349C2.20606 304.349 0 306.555 0 309.276C0 311.997 2.20606 314.203 4.92738 314.203Z" fill="#F27DF9"/>
<path d="M187.35 163.411L205.278 105.641L198.94 154.537H259.426L191.515 266.817L242.041 163.411H187.35Z" fill="#0F172A" fill-opacity="0.2"/>
<path d="M186.625 163.411L204.553 105.641L198.215 154.537H258.701L190.79 266.817L241.316 163.411H186.625Z" fill="#0F172A" fill-opacity="0.2"/>
<path d="M286.352 105.641H306.1L320.999 152.907L303.251 177.355C300.173 173.733 301.621 177.355 303.251 177.355L271.535 222.095H315.753L309.369 268.266H190.884L258.489 155.413H198.064L205.278 105.641H286.352Z" fill="white"/>
<path d="M205.454 105.641H146.779L75.7951 199.811L70 239.29H141.714L136.819 269.171H189.699L201.47 196.189H137L205.454 105.641Z" fill="white"/>
</svg>
